<?xml version="1.0" standalone="no"?>
<!DOCTYPE svg PUBLIC "-//W3C//DTD SVG 20010904//EN"
 "http://www.w3.org/TR/2001/REC-SVG-20010904/DTD/svg10.dtd">
<svg version="1.0" xmlns="http://www.w3.org/2000/svg"
 width="450.000000pt" height="450.000000pt" viewBox="0 0 450.000000 450.000000"
 preserveAspectRatio="xMidYMid meet">
<metadata>
Created by potrace 1.10, written by Peter Selinger 2001-2011
</metadata>
<g transform="translate(0.000000,450.000000) scale(0.050000,-0.050000)"
fill="#000000" stroke="none">
<path d="M5227 8914 c13 -10 -8 -13 -51 -7 -95 13 -170 -5 -133 -32 19 -13 12
-15 -22 -8 -54 12 -274 -88 -352 -160 -26 -23 -51 -38 -57 -32 -6 6 -17 -4
-24 -22 -7 -18 -24 -33 -38 -33 -38 0 -292 -281 -277 -305 7 -12 4 -15 -8 -8
-24 15 -71 -34 -51 -54 7 -7 2 -13 -11 -13 -12 0 -23 -9 -23 -21 0 -11 -17
-39 -38 -62 -51 -54 -162 -264 -162 -305 0 -18 -9 -32 -20 -32 -11 0 -20 -18
-20 -40 0 -22 -9 -40 -19 -40 -11 0 -31 -21 -45 -48 -14 -26 -82 -94 -150
-151 -82 -68 -120 -113 -113 -133 7 -16 4 -28 -6 -26 -36 6 -59 -4 -112 -49
-30 -26 -48 -54 -40 -63 8 -9 6 -11 -5 -5 -26 15 -174 -114 -154 -134 8 -8 1
-11 -14 -8 -16 4 -40 -14 -53 -39 -13 -26 -32 -47 -41 -48 -38 -3 -147 -102
-135 -121 7 -12 4 -16 -7 -9 -11 7 -89 -52 -173 -132 -84 -79 -153 -141 -153
-136 0 8 -107 -89 -264 -240 -53 -51 -96 -87 -96 -82 0 6 -54 -43 -120 -110
-66 -66 -120 -116 -120 -111 0 6 -13 -1 -30 -15 -16 -13 -24 -33 -18 -43 6
-10 4 -16 -6 -13 -9 3 -56 -14 -106 -38 -49 -24 -288 -85 -530 -136 -588 -123
-671 -169 -854 -474 -291 -489 -327 -1511 -78 -2237 284 -827 536 -1212 918
-1401 193 -95 292 -96 765 -10 214 40 435 72 490 72 150 0 309 -23 297 -43
-11 -18 15 -24 89 -17 30 2 42 -5 34 -18 -13 -21 12 -30 64 -23 14 1 39 -10
55 -26 16 -17 49 -25 75 -19 29 6 36 3 21 -8 -24 -17 305 -146 388 -153 20 -2
47 -13 60 -25 13 -13 49 -19 80 -14 44 7 49 4 26 -12 -32 -23 -1 -31 90 -23
33 2 35 -1 10 -18 -33 -22 2 -31 93 -24 23 2 48 -11 55 -28 8 -22 25 -28 54
-18 27 8 38 6 31 -7 -17 -26 459 -196 527 -188 39 4 44 1 20 -15 -32 -22 4
-31 87 -22 21 3 32 -5 25 -16 -16 -26 52 -48 95 -31 20 7 37 0 45 -21 9 -22
26 -28 53 -19 25 7 35 5 27 -8 -7 -12 18 -31 56 -43 38 -13 109 -59 158 -102
50 -43 106 -79 125 -79 20 0 30 -6 23 -13 -19 -19 68 -88 92 -73 11 7 14 2 6
-10 -17 -28 248 -209 290 -198 15 4 21 4 12 -1 -26 -15 128 -88 159 -77 16 6
34 -3 40 -20 9 -22 28 -27 65 -19 35 8 43 6 24 -6 -42 -28 227 -83 408 -83
184 0 422 50 438 92 7 17 21 25 32 18 23 -15 140 31 140 55 0 8 18 15 39 15
68 0 452 307 429 343 -6 9 -1 17 10 17 85 0 574 773 531 841 -6 10 -3 19 7 19
10 0 30 38 44 85 15 47 34 94 43 104 10 10 17 44 17 74 0 30 9 60 21 68 12 7
17 23 13 36 -5 13 2 46 15 73 183 381 194 2196 18 2870 -17 66 -35 147 -38
180 -7 62 -31 175 -69 330 -12 50 -27 115 -34 145 -6 30 -18 55 -26 55 -9 0
-14 11 -13 25 4 38 -133 484 -151 492 -9 3 -16 28 -16 53 0 26 -9 53 -20 60
-11 7 -20 34 -20 61 0 27 -9 49 -20 49 -11 0 -20 23 -20 50 0 28 -9 50 -20 50
-11 0 -20 11 -20 25 1 34 -165 403 -185 412 -8 3 -15 17 -15 31 0 35 -47 132
-65 132 -8 0 -15 18 -15 40 0 22 -9 40 -20 40 -11 0 -20 9 -20 21 0 36 -173
319 -187 305 -7 -7 -13 2 -13 21 0 18 -10 33 -21 33 -12 0 -16 9 -9 20 7 11
-10 41 -36 68 -27 26 -54 63 -61 81 -21 56 -182 249 -208 250 -14 0 -23 10
-20 21 7 27 -246 282 -267 269 -10 -6 -18 2 -18 18 0 28 -231 226 -258 221 -6
-2 -24 14 -38 35 -15 20 -43 37 -63 37 -20 0 -42 13 -48 30 -7 18 -24 24 -46
16 -20 -8 -29 -5 -21 8 18 29 -341 195 -411 190 -35 -3 -53 3 -45 16 13 21
-30 27 -146 20 -36 -2 -77 6 -90 16 -13 11 -93 19 -177 17 -89 -2 -144 -10
-130 -19z m583 -215 c1271 -399 2318 -2375 2490 -4699 211 -2854 -1353 -4454
-2921 -2987 -91 85 -138 104 -1331 529 -1547 551 -1465 517 -1629 672 -728
686 -1054 2413 -626 3316 68 145 76 152 1924 1790 l305 270 120 232 c398 766
1006 1086 1668 877z m-3850 -2884 c-27 -12 -87 -52 -132 -88 -46 -36 -89 -60
-95 -53 -7 7 -13 -3 -13 -21 0 -19 -23 -70 -51 -114 -28 -44 -45 -89 -39 -100
7 -10 3 -19 -9 -19 -11 0 -21 -22 -21 -49 0 -27 -8 -53 -17 -59 -17 -11 -51
-127 -46 -157 2 -8 -4 -15 -13 -15 -19 0 -28 -74 -24 -190 4 -93 -6 -185 -24
-217 -14 -26 -13 -34 1 -25 12 8 19 -14 17 -58 -2 -38 -11 -70 -19 -70 -9 0 0
-24 20 -54 24 -37 26 -49 7 -37 -21 12 -24 10 -12 -9 24 -40 25 -248 1 -265
-14 -10 -11 -22 9 -34 21 -14 29 -59 30 -170 0 -83 5 -151 11 -151 6 0 12 -16
15 -35 2 -19 8 -62 12 -95 5 -33 9 -76 10 -96 1 -20 10 -32 19 -26 9 6 14 -25
11 -69 -2 -44 3 -75 12 -69 19 12 51 -139 44 -205 -4 -31 3 -41 23 -33 23 8
28 -6 25 -66 -5 -75 31 -177 53 -154 7 7 7 -7 1 -31 -9 -33 -1 -46 33 -55 33
-8 37 -16 18 -28 -19 -12 -15 -20 17 -32 24 -9 44 -20 44 -26 0 -5 9 -32 20
-60 33 -83 25 5 -10 108 -18 52 -27 100 -20 106 6 7 12 1 12 -13 0 -99 216
-472 388 -671 67 -77 107 -128 89 -114 -25 19 -37 20 -47 3 -16 -25 19 -69 56
-70 13 0 21 -12 18 -27 -3 -14 13 -30 35 -36 22 -6 36 -19 30 -28 -6 -10 0
-19 15 -20 14 0 44 -5 66 -10 22 -5 74 -15 116 -22 127 -20 64 -39 -435 -137
-625 -122 -698 -110 -978 151 -901 843 -1103 3249 -305 3628 80 38 916 209
1022 209 l60 0 -50 -22z m-263 -437 c-45 -118 -90 -309 -104 -435 -6 -48 -16
-93 -24 -100 -41 -40 66 471 122 580 46 89 49 68 6 -45z"/>
<path d="M5428 8570 c-516 -163 -956 -896 -1098 -1833 -5 -37 -15 -103 -22
-147 -7 -44 -13 -100 -12 -125 0 -25 -11 -45 -23 -45 -15 -1 -14 -6 3 -17 14
-9 20 -31 13 -49 -7 -19 -20 -29 -29 -24 -9 5 -16 -10 -15 -35 0 -25 -5 -124
-11 -220 -5 -96 -4 -175 5 -175 8 0 14 -13 14 -29 0 -16 -5 -27 -11 -25 -11 4
-25 -18 -20 -31 11 -34 7 -95 -6 -95 -10 0 -16 -85 -14 -190 2 -109 12 -190
23 -190 11 0 16 -32 11 -71 -6 -51 -1 -68 18 -60 26 10 28 -30 1 -50 -8 -6 2
-24 21 -41 33 -28 35 -1 35 561 -2 1812 585 2909 1527 2856 l192 -11 -120 38
c-139 43 -358 47 -482 8z"/>
<path d="M5240 8298 c-142 -50 -195 -98 -109 -98 1032 -4 2226 -2232 2321
-4329 6 -133 13 -281 17 -331 78 -1041 -371 -2324 -897 -2569 -67 -31 -73 -39
-44 -55 37 -21 362 1 362 24 0 2 17 6 37 10 53 10 64 27 34 55 -19 18 -23 18
-14 1 8 -13 5 -29 -7 -36 -11 -7 -20 1 -20 18 0 21 -12 27 -35 19 -29 -10 -28
-6 5 21 39 32 38 32 -20 22 l-60 -10 52 25 c28 14 48 36 43 50 -5 14 1 25 13
25 12 0 22 19 22 42 0 36 5 39 30 18 17 -14 37 -20 44 -13 7 7 0 13 -16 14
-20 0 -18 6 7 21 19 11 35 38 35 60 0 27 8 35 25 25 16 -9 15 -2 -3 20 -16 20
-20 34 -10 32 46 -9 71 3 61 30 -6 17 4 39 23 50 27 16 28 20 4 21 -20 1 -12
17 25 50 31 27 55 69 55 95 0 26 13 65 29 86 17 22 30 60 30 85 1 32 9 42 26
31 17 -10 16 -4 -2 19 -28 34 -14 45 42 36 8 -1 15 11 15 28 0 16 -9 30 -20
30 -11 0 -20 10 -20 21 0 12 7 17 15 12 8 -5 16 10 18 34 4 66 15 102 35 116
9 7 17 38 17 70 0 31 7 66 16 77 8 11 16 27 16 35 0 9 10 64 23 124 12 60 20
120 18 135 -3 14 6 77 19 138 14 62 23 121 22 130 -9 45 3 69 26 55 20 -11 20
-8 1 15 -30 38 -16 580 16 600 15 8 15 17 2 25 -11 7 -19 84 -17 171 2 87 -4
154 -12 149 -25 -16 -17 39 15 100 35 67 39 101 10 83 -25 -15 -33 10 -49 143
-11 94 -8 105 31 118 32 10 36 18 17 29 -14 9 -38 11 -54 5 -22 -8 -28 7 -25
67 9 178 0 270 -23 256 -14 -9 -18 -5 -9 8 7 13 5 57 -6 99 -11 41 -24 111
-28 155 -5 44 -15 95 -23 114 -8 19 -8 46 0 60 9 14 8 19 -2 10 -22 -20 -92
263 -77 311 6 19 2 35 -8 35 -11 0 -26 34 -34 75 -7 41 -23 86 -34 100 -11 13
-15 38 -9 55 7 16 4 30 -5 30 -28 0 -39 75 -15 99 17 17 11 32 -23 58 -40 30
-43 42 -25 92 12 31 17 61 12 67 -6 6 -11 0 -11 -14 0 -49 -64 39 -103 141
-32 84 -34 107 -13 134 23 29 22 30 -9 6 -34 -27 -48 -4 -37 62 1 8 -6 15 -16
15 -15 0 -44 72 -50 123 -1 8 -9 20 -17 29 -25 24 -17 52 10 35 17 -10 16 -4
-2 19 -16 19 -40 34 -55 34 -16 0 -28 10 -28 21 0 12 9 16 20 9 11 -7 20 -3
20 9 0 11 -10 21 -21 21 -12 0 -15 10 -7 23 8 13 5 18 -7 10 -11 -7 -32 1 -45
17 -14 17 -19 30 -13 30 7 0 -10 40 -37 89 -28 49 -50 107 -50 130 0 22 -12
41 -27 41 -28 0 -72 69 -80 125 -3 18 -19 49 -36 69 -54 61 -77 121 -63 160
11 29 8 32 -15 13 -23 -18 -38 -12 -69 26 -22 27 -56 68 -76 92 -19 23 -31 55
-25 70 6 15 3 22 -6 17 -9 -6 -42 16 -74 49 -31 32 -48 59 -38 59 28 0 -197
199 -226 199 -14 1 -25 20 -25 43 0 23 -10 38 -24 33 -25 -8 -93 42 -162 119
-22 25 -48 40 -57 34 -9 -6 -37 4 -61 21 -25 17 -61 31 -80 31 -23 0 -31 10
-23 30 8 21 2 27 -18 19 -17 -6 -35 2 -42 19 -9 24 1 29 43 24 30 -4 41 -2 24
3 -16 5 -34 16 -40 23 -58 81 -118 90 -260 40z"/>
<path d="M5462 8333 c22 -20 180 -32 168 -13 -7 11 -49 20 -95 20 -45 0 -78
-3 -73 -7z"/>
<path d="M4989 8097 c-385 -418 -597 -1150 -623 -2148 -10 -394 8 -896 29
-804 4 19 17 35 27 35 11 0 18 34 15 76 -2 42 2 86 10 99 7 12 4 28 -8 35 -14
9 -13 23 4 43 18 23 19 34 1 44 -15 10 -20 54 -16 119 5 65 0 99 -12 91 -11
-6 -8 10 6 36 15 26 25 53 23 59 -17 64 -19 118 -4 118 29 0 23 60 -6 61 -14
0 -9 9 10 21 26 15 30 29 16 56 -25 47 -40 262 -17 262 9 0 17 29 16 65 -1 36
4 92 10 125 7 33 16 108 20 168 9 125 23 169 48 153 9 -6 29 3 42 19 18 22 19
30 2 30 -33 0 -13 234 23 277 25 30 33 61 41 167 1 18 9 29 16 25 8 -5 20 6
27 25 7 18 2 39 -10 47 -14 8 -15 19 -5 25 10 7 44 75 75 151 32 80 70 143 89
148 22 6 33 28 31 66 -1 32 5 67 14 78 10 12 36 46 59 77 36 47 47 52 74 30
27 -22 29 -21 13 4 -33 55 -29 98 13 127 24 17 39 40 35 53 -5 13 -44 -15 -88
-63z"/>
<path d="M3922 7318 c-31 -70 -68 -180 -81 -243 -13 -63 -31 -115 -40 -115
-40 0 -36 -82 5 -110 24 -17 34 -30 22 -30 -11 0 -30 10 -42 22 -15 15 -27 3
-42 -40 -12 -35 -14 -62 -4 -62 18 0 53 -134 44 -166 -3 -10 4 -11 16 -4 11 7
15 40 9 74 -9 51 -5 59 23 48 28 -11 30 -8 9 17 -14 17 -35 25 -46 18 -12 -8
-15 -4 -7 9 7 12 25 18 38 13 18 -7 39 53 70 205 24 119 57 274 73 346 37 170
24 175 -47 18z"/>
<path d="M3705 6155 c-62 -261 -39 -1106 45 -1635 83 -529 213 -1053 254
-1027 10 6 12 -13 5 -41 -9 -34 -5 -52 10 -52 13 0 17 -10 9 -23 -9 -14 -5
-18 9 -9 25 16 16 89 -24 197 -7 19 -19 51 -26 70 -7 19 -11 56 -8 82 3 30 -4
42 -17 34 -13 -8 -17 -1 -10 18 7 17 2 31 -12 31 -13 0 -19 11 -15 25 5 14 1
52 -9 85 -23 76 -52 224 -75 390 -11 72 -23 148 -28 170 -5 22 -15 90 -23 150
-7 61 -18 133 -24 160 -5 28 -11 68 -11 90 -1 22 -12 153 -25 290 -31 342 -20
976 19 1038 6 11 4 24 -6 30 -10 6 -27 -27 -38 -73z"/>
<path d="M5720 5099 c-159 -8 -526 -15 -815 -16 -289 -2 -525 -8 -525 -13 0
-204 246 -1437 299 -1495 7 -8 49 2 92 23 100 48 515 203 1079 404 439 157
552 219 549 303 0 14 -14 0 -31 -31 -42 -77 -114 -102 -187 -65 -239 124 -285
851 -54 851 44 0 173 -118 173 -158 0 -12 9 -22 20 -22 29 0 25 13 -30 97 -54
81 -163 145 -236 139 -24 -1 -174 -9 -334 -17z m135 -116 c59 -3 65 -9 65 -66
0 -35 -5 -58 -12 -52 -16 16 -67 -30 -55 -50 5 -8 -4 -20 -19 -26 -33 -13 -4
-149 31 -149 9 0 12 -9 5 -20 -7 -11 -4 -20 5 -20 21 0 19 -141 -2 -176 -9
-13 -5 -24 7 -24 12 0 17 -9 10 -20 -7 -11 -4 -20 6 -20 37 0 71 -117 44 -150
-13 -16 -33 -25 -42 -19 -10 6 -18 2 -18 -10 0 -36 -126 -79 -159 -53 -23 17
-25 16 -12 -6 13 -22 7 -26 -25 -17 -25 6 -53 -1 -67 -19 -23 -27 -95 -64
-147 -74 -11 -2 -40 -15 -64 -28 -28 -16 -48 -17 -56 -4 -7 11 -21 20 -32 20
-11 0 -16 -7 -11 -15 5 -8 -60 -41 -144 -72 -84 -32 -190 -76 -235 -99 -90
-45 -146 -36 -162 26 -6 22 -17 35 -25 30 -9 -5 -13 22 -10 61 4 44 -2 65 -15
57 -13 -9 -18 16 -13 70 6 61 2 80 -17 73 -33 -13 -34 22 -1 37 20 10 20 14 0
24 -14 6 -25 32 -25 58 0 26 -10 50 -22 54 -14 5 -22 59 -20 142 1 86 -6 134
-21 134 -14 0 -12 12 6 34 23 29 23 31 -1 17 -21 -13 -26 -9 -17 14 7 18 2 36
-11 41 -18 7 -18 15 1 35 19 21 18 34 -7 62 -64 70 -12 146 104 151 464 18
933 44 941 52 4 4 99 3 242 -3z"/>
<path d="M6167 4819 c87 -69 123 -287 62 -375 -37 -53 26 -68 70 -16 94 114
-3 432 -133 432 l-51 0 52 -41z"/>
<path d="M4530 3560 c-11 -17 -8 -31 6 -35 13 -5 24 -32 24 -62 1 -78 22 -144
42 -132 10 6 18 -8 18 -31 0 -23 -9 -37 -20 -30 -11 7 -20 -8 -20 -34 1 -36 5
-40 19 -17 27 42 47 -15 34 -97 -9 -60 17 -76 53 -32 9 11 11 0 4 -25 -7 -26
-4 -45 9 -45 11 0 21 -10 21 -21 0 -12 -9 -16 -20 -9 -11 7 -14 -1 -8 -19 7
-17 20 -26 30 -20 10 6 18 2 18 -10 0 -11 -7 -21 -17 -21 -9 0 -16 -13 -16
-29 0 -16 9 -24 19 -17 12 7 16 -5 9 -31 -6 -24 -3 -38 7 -32 16 10 26 -23 24
-85 -1 -14 9 -23 21 -20 13 2 20 -13 17 -33 -4 -22 2 -32 14 -24 13 8 17 1 11
-15 -6 -15 3 -39 20 -53 17 -14 31 -42 31 -62 0 -20 11 -48 25 -63 24 -24 34
-61 41 -140 1 -18 11 -28 22 -21 10 6 13 -2 7 -20 -7 -18 0 -36 16 -43 16 -6
29 -26 29 -44 0 -27 -5 -28 -30 -8 -36 30 -58 -11 -44 -84 7 -36 9 -32 11 17
3 65 102 58 103 -7 0 -13 14 -32 30 -41 26 -15 25 -23 -10 -60 -49 -53 -54
-102 -5 -53 33 34 35 33 41 -17 5 -37 23 -58 65 -72 64 -23 83 -53 21 -34 -21
7 -44 3 -51 -8 -8 -12 -3 -21 10 -21 13 0 18 -13 12 -29 -6 -17 -3 -35 8 -42
10 -6 20 5 21 25 1 21 5 26 11 11 6 -14 20 -20 31 -13 11 7 9 -8 -4 -33 -21
-39 -20 -43 7 -33 24 9 31 1 28 -32 -4 -34 5 -44 43 -44 65 -1 77 -45 19 -69
-34 -13 -37 -19 -13 -20 24 -1 31 -12 24 -36 -10 -30 -7 -29 20 4 23 28 32 31
32 10 1 -25 4 -24 22 1 18 25 20 25 11 -5 -7 -19 -3 -35 7 -35 12 0 12 -18 0
-49 -12 -34 -11 -54 4 -63 13 -8 17 -5 9 8 -8 11 -5 27 7 34 11 7 20 -2 20
-19 0 -17 10 -31 21 -31 12 0 15 -11 6 -25 -9 -16 0 -14 24 4 22 16 32 22 24
12 -8 -9 -4 -30 9 -46 18 -22 17 -32 -5 -46 -26 -17 -13 -27 26 -21 8 1 15
-11 15 -27 0 -42 113 -118 128 -86 7 14 8 1 2 -29 -6 -29 -1 -59 10 -66 11 -7
20 1 20 18 0 16 10 36 23 44 13 8 18 5 10 -7 -7 -11 1 -32 17 -45 17 -14 30
-40 30 -59 0 -19 24 -56 53 -83 50 -45 51 -46 30 -4 -29 55 -29 59 6 73 18 7
25 1 20 -14 -6 -13 4 -42 22 -64 18 -21 26 -27 18 -11 -10 18 -5 24 13 18 15
-5 28 -21 28 -36 0 -15 11 -30 25 -35 14 -5 25 5 25 21 0 16 11 34 25 39 34
12 75 -4 75 -29 0 -14 -10 -13 -27 2 -22 18 -26 13 -18 -28 5 -27 18 -50 29
-50 10 0 12 11 4 23 -10 16 -4 20 20 11 22 -9 29 -6 20 9 -8 13 -3 18 14 12
15 -5 25 -22 21 -37 -3 -16 0 -21 8 -13 9 8 27 5 42 -8 20 -16 27 -15 27 6 1
17 6 19 15 6 20 -29 199 -94 257 -94 26 0 48 -7 48 -16 0 -21 248 -8 361 18
120 28 230 79 335 157 48 35 97 67 110 72 13 5 18 15 10 24 -8 8 -47 -4 -86
-27 -722 -427 -1652 189 -2312 1531 -88 179 -177 372 -198 430 -21 58 -71 196
-111 306 -40 110 -86 243 -102 297 -20 66 -38 93 -57 86 -15 -6 -31 0 -35 12
-5 16 -13 14 -25 -5z"/>
<path d="M4720 3463 c0 -153 401 -1058 642 -1447 328 -531 914 -1093 1059
-1015 48 25 50 43 4 36 -19 -3 -54 5 -77 18 -24 13 -50 17 -58 9 -9 -8 -5 6 8
31 19 36 18 42 -5 33 -15 -5 -41 3 -57 19 -16 16 -46 32 -67 37 -24 4 -37 21
-33 42 5 30 -17 43 -61 36 -22 -3 -18 27 6 51 14 14 11 20 -9 20 -17 0 -26 -7
-20 -16 31 -51 -38 -6 -84 53 -42 56 -59 66 -81 48 -36 -31 -35 -8 3 29 26 26
21 34 -45 66 -48 24 -77 53 -81 82 -4 25 -19 45 -33 45 -15 0 -32 23 -39 51
-7 28 -21 46 -31 39 -42 -25 -43 38 -2 69 34 26 37 34 13 34 -18 0 -32 -6 -32
-13 0 -7 -13 -13 -29 -13 -16 0 -25 7 -19 16 6 10 1 17 -10 17 -11 0 -16 18
-12 41 4 22 0 35 -9 30 -9 -6 -28 3 -41 19 -13 16 -34 24 -45 17 -13 -8 -15
-3 -5 13 10 16 2 36 -21 53 -27 20 -29 27 -8 27 19 1 12 14 -19 38 -27 20 -42
47 -34 59 8 13 2 23 -13 23 -24 0 -86 84 -95 130 -2 11 -12 18 -22 15 -10 -3
-19 15 -20 40 -5 94 -9 105 -33 100 -14 -3 -25 13 -25 35 0 22 -9 40 -20 40
-12 0 -12 18 0 50 15 39 13 50 -9 50 -16 0 -34 18 -41 40 -7 22 -26 53 -43 70
-17 17 -33 55 -37 85 -3 29 -15 57 -27 61 -11 3 -16 20 -10 35 6 16 1 29 -12
29 -13 0 -18 9 -11 20 7 11 -4 21 -24 22 -24 1 -27 5 -9 12 19 7 20 15 6 24
-12 8 -25 31 -28 53 -3 21 -13 50 -22 64 -8 14 -9 25 -2 25 8 0 3 13 -11 30
-13 16 -19 44 -12 61 6 18 3 26 -8 19 -18 -11 -30 32 -22 77 2 10 -6 28 -17
42 -11 14 -14 32 -6 41 8 9 4 10 -8 3 -13 -7 -38 1 -55 18 -18 18 -32 23 -32
12z"/>
<path d="M4353 2565 c-8 -13 1 -57 19 -99 19 -42 33 -83 31 -91 -2 -9 18 -49
43 -90 26 -41 53 -88 61 -105 95 -211 468 -755 601 -878 81 -76 63 -40 -95
192 -152 224 -238 365 -358 586 -61 112 -217 389 -271 479 -12 20 -21 22 -31
6z"/>
<path d="M7148 1083 c13 -21 -12 -32 -54 -25 -10 2 -10 -8 -2 -21 10 -16 4
-20 -18 -11 -18 7 -39 1 -47 -12 -7 -13 -6 -17 3 -9 9 8 28 -1 42 -20 24 -33
26 -32 40 5 9 22 29 50 45 62 23 18 24 25 3 38 -17 11 -21 8 -12 -7z"/>
</g>
</svg>
